PathFileType	4	(X/Y/Z)	c:/Users/goper/Files/vsCode/490R/osim_files/A04/A04_Static02.trc
DataRate	CameraRate	NumFrames	NumMarkers	Units                	OrigDataRate	OrigDataStartFrame	OrigNumFrames
120.00	120.00	5	36	mm	120.0	107	855
                Frame#	Time	LPSIS			LASIS			LTH1			LTH2			LTH3			LTH4			LLFE			LMFE			LSH1			LSH2			LSH3			LSH4			LLMAL			LMMAL			LCAL			LMTP5			LTOE			LMTP1			RPSIS			RASIS			RTH1			RTH2			RTH3			RTH4			RLFE			RMFE			RSH1			RSH2			RSH3			RSH4			RLMAL			RMMAL			RCAL			RMTP1			RTOE			RMTP5		
		X1	Y1	Z1	X2	Y2	Z2	X3	Y3	Z3	X4	Y4	Z4	X5	Y5	Z5	X6	Y6	Z6	X7	Y7	Z7	X8	Y8	Z8	X9	Y9	Z9	X10	Y10	Z10	X11	Y11	Z11	X12	Y12	Z12	X13	Y13	Z13	X14	Y14	Z14	X15	Y15	Z15	X16	Y16	Z16	X17	Y17	Z17	X18	Y18	Z18	X19	Y19	Z19	X20	Y20	Z20	X21	Y21	Z21	X22	Y22	Z22	X23	Y23	Z23	X24	Y24	Z24	X25	Y25	Z25	X26	Y26	Z26	X27	Y27	Z27	X28	Y28	Z28	X29	Y29	Z29	X30	Y30	Z30	X31	Y31	Z31	X32	Y32	Z32	X33	Y33	Z33	X34	Y34	Z34	X35	Y35	Z35	X36	Y36	Z36

107	0.88333	-261.04068	1055.78516	388.92349	-40.66494	1014.02271	298.64761	-165.63103	711.47205	274.65173	-166.86781	667.52869	273.13086	-104.23518	706.43018	274.44781	-113.00850	662.31018	273.20309	-159.52797	537.96204	275.84717	-129.25507	525.83704	412.27103	-208.28331	442.22122	272.19421	-207.38223	398.71747	270.23303	-145.96452	435.36008	276.20117	-154.78395	392.71884	275.63193	-273.16922	116.24266	294.18460	-242.09389	115.51231	374.43076	-333.64554	76.14087	354.55304	-141.22873	60.09024	242.01350	-85.23236	72.14552	296.78699	-99.52770	55.89854	342.79626	-259.20923	1047.80322	494.58359	-33.40174	1037.16309	586.77643	-156.42915	732.21930	624.82294	-150.24272	690.38116	622.52209	-94.66736	734.91675	633.16669	-97.02210	687.91876	627.29681	-104.81805	550.56165	604.01569	-92.71449	544.65631	485.92691	-195.66740	346.67230	597.06311	-198.05450	299.48672	590.11005	-135.24152	337.62061	603.72845	-146.23352	291.44202	600.10797	-200.97163	104.64582	598.35815	-169.59735	110.90347	465.47751	-268.96259	61.31348	517.65112	-44.12391	53.86985	489.85071	-21.78681	74.53902	537.73676	-58.52644	48.51028	608.92004
108	0.89167	-261.07962	1055.76758	388.94904	-40.71669	1013.99304	298.68127	-165.68077	711.44604	274.67816	-166.92697	667.50507	273.16595	-104.25463	706.43427	274.47672	-113.03250	662.29034	273.22177	-159.54991	537.97052	275.84460	-129.27661	525.81519	412.28928	-208.31670	442.22144	272.19159	-207.43039	398.72250	270.24002	-146.00911	435.35455	276.23508	-154.78207	392.72705	275.63892	-273.14471	116.19187	294.20239	-242.10417	115.49524	374.43982	-333.79556	76.22871	354.51218	-141.23776	60.10564	241.99893	-85.22291	72.15785	296.77994	-99.54877	55.88746	342.78754	-259.23285	1047.77551	494.61215	-33.39929	1037.20227	586.76746	-156.46222	732.21857	624.83447	-150.26682	690.38483	622.54449	-94.67207	734.94934	633.17377	-97.02559	687.93109	627.30414	-104.86330	550.56946	604.02704	-92.75494	544.64099	485.95108	-195.68446	346.68686	597.04706	-198.11316	299.48132	590.10266	-135.25703	337.64090	603.72101	-146.28021	291.42850	600.10706	-200.95958	104.63165	598.33356	-169.60570	110.88859	465.48117	-268.97766	61.34722	517.61212	-44.11371	53.73635	489.93710	-21.76475	74.57906	537.72046	-58.51893	48.50708	608.90363
109	0.90000	-261.14771	1055.77856	389.00797	-40.66983	1014.00934	298.73898	-165.70061	711.49109	274.70798	-166.93510	667.51501	273.19870	-104.28001	706.44275	274.50793	-113.05623	662.32080	273.24988	-159.57909	537.95605	275.87946	-129.29930	525.78809	412.30807	-208.31099	442.24371	272.21054	-207.46078	398.74231	270.27087	-146.02264	435.37802	276.24451	-154.78415	392.74887	275.67520	-273.14618	116.16943	294.22919	-242.10721	115.47284	374.46872	-333.79428	76.22417	354.53616	-141.21660	60.15326	241.96931	-85.19655	72.21512	296.75916	-99.51846	55.94036	342.77097	-259.29941	1047.78687	494.66730	-33.36674	1037.25525	586.75848	-156.52267	732.22644	624.83673	-150.28645	690.43530	622.53387	-94.65093	734.99054	633.15771	-97.02550	687.96619	627.31177	-104.85526	550.57916	604.01373	-92.78570	544.65302	485.97958	-195.72185	346.74466	597.01422	-198.12555	299.54376	590.08185	-135.24867	337.66125	603.71210	-146.28110	291.43961	600.10486	-200.96176	104.65811	598.34760	-169.60480	110.90701	465.49631	-268.98932	61.39906	517.56354	-44.08379	53.97252	489.80185	-21.72982	74.63272	537.68597	-58.50974	48.56376	608.89264
110	0.90833	-261.21982	1055.82507	389.04608	-40.64052	1014.01532	298.79852	-165.71919	711.53247	274.76031	-166.94438	667.55994	273.21875	-104.32246	706.42676	274.55084	-113.04268	662.34918	273.29810	-159.59486	537.97662	275.92880	-129.30792	525.78882	412.31912	-208.32640	442.24146	272.22330	-207.46759	398.77802	270.30432	-146.02904	435.39166	276.29208	-154.80562	392.75726	275.69882	-273.00467	116.23572	294.39267	-242.09537	115.48853	374.46909	-333.65530	76.26230	354.50790	-141.09375	60.16385	242.13420	-85.15271	72.26637	296.75720	-99.45892	55.99712	342.74124	-259.34808	1047.84570	494.69821	-33.29021	1037.32007	586.76477	-156.50890	732.28772	624.81702	-150.29132	690.46173	622.51349	-94.62699	735.00317	633.12634	-96.99586	687.98871	627.30383	-104.80370	550.63690	603.98724	-92.76334	544.67767	485.99582	-195.72447	346.79181	597.01471	-198.09390	299.58075	590.08301	-135.18614	337.69885	603.69501	-146.22482	291.47192	600.07581	-200.89902	104.68314	598.30463	-169.58189	110.93182	465.52750	-268.98627	61.49744	517.51953	-44.03679	54.02417	489.77847	-21.68035	74.70531	537.65582	-58.43847	48.60163	608.85461
111	0.91667	-261.24680	1055.82983	389.04364	-40.66562	1014.00757	298.84134	-165.65654	711.57983	274.83301	-166.95636	667.56702	273.22769	-104.29673	706.41241	274.55515	-113.05256	662.34949	273.32333	-159.58810	537.96783	275.93472	-129.28375	525.79895	412.32925	-208.32127	442.24146	272.24304	-207.47507	398.77335	270.31628	-146.01338	435.40225	276.30728	-154.81644	392.75974	275.73465	-273.12604	116.19196	294.25217	-242.09299	115.49877	374.45819	-333.65585	76.28029	354.52069	-141.17133	60.19389	241.97108	-85.14732	72.26077	296.73648	-99.45732	55.98731	342.74838	-259.41080	1047.84387	494.69788	-33.29012	1037.31677	586.79541	-156.51794	732.29907	624.83514	-150.29099	690.45270	622.53876	-94.61298	734.97736	633.14575	-96.98338	687.99176	627.33301	-104.77724	550.62988	604.02771	-92.77602	544.68915	486.01950	-195.69452	346.78424	597.02057	-198.09268	299.59183	590.08942	-135.18796	337.68045	603.71295	-146.20535	291.47433	600.09119	-200.85924	104.67482	598.27997	-169.57440	110.92818	465.51709	-268.95200	61.46034	517.53131	-44.03958	53.99941	489.80408	-21.65575	74.68587	537.65143	-58.42961	48.60287	608.86670
